<svg xmlns="http://www.w3.org/2000/svg" viewBox="0 0 38 24" width="38" height="24">
  <rect width="38" height="24" rx="3" fill="#000"/>
  <text x="19" y="15" text-anchor="middle" font-family="system-ui,-apple-system,sans-serif" font-size="7" font-weight="600" fill="#fff">Pay</text>
  <path d="M10.5 7.5c.3-.4.5-.9.4-1.4-.4 0-.9.3-1.2.6-.3.3-.5.8-.4 1.3.4 0 .9-.2 1.2-.5zm.4.7c-.7 0-1.3.4-1.6.4s-.8-.4-1.4-.4c-.7 0-1.3.4-1.7 1-.7 1.2-.2 3 .5 4 .3.5.7 1 1.3 1 .5 0 .7-.3 1.3-.3s.8.3 1.4.3c.5 0 .9-.5 1.2-1 .4-.5.5-1 .5-1.1-.5-.2-.9-.8-.9-1.6 0-.7.4-1.2.8-1.5-.5-.6-1.1-.8-1.4-.8z" fill="#fff"/>
</svg>